<svg xmlns="http://www.w3.org/2000/svg" width="30" height="30" fill="none"><path d="M8.333 0C3.732 0 0 3.732 0 8.333v13.333C0 26.268 3.732 30 8.333 30h13.333C26.268 30 30 26.268 30 21.667V8.333C30 3.732 26.268 0 21.667 0H8.333zM25 3.333A1.67 1.67 0 0 1 26.667 5 1.67 1.67 0 0 1 25 6.667 1.67 1.67 0 0 1 23.333 5 1.67 1.67 0 0 1 25 3.333zM15 6.667c4.602 0 8.333 3.732 8.333 8.333S19.602 23.333 15 23.333 6.667 19.602 6.667 15 10.398 6.667 15 6.667zM15 10a5 5 0 0 0-5 5 5 5 0 0 0 5 5 5 5 0 0 0 5-5 5 5 0 0 0-5-5z" fill="#fff"/></svg>