<svg width="30" height="24" viewBox="0 0 30 24" fill="none" xmlns="http://www.w3.org/2000/svg">
<path d="M27.7778 0H2.22222C0.995 0 0 0.995 0 2.22222V21.1111C0 22.3383 0.995 23.3333 2.22222 23.3333H27.7778C29.005 23.3333 30 22.3383 30 21.1111V2.22222C30 0.995 29.005 0 27.7778 0ZM27.7778 19.8544C27.7522 20.5556 27.1672 21.1111 26.4544 21.1111H24.7222L25.5556 6.11111L15 12.7778L4.44444 6.66667L5.27778 21.1111H3.54556C2.83278 21.1111 2.24778 20.5556 2.22222 19.8544V3.49389C2.22222 2.79944 2.79444 2.23667 3.5 2.23667H4.16667L15 10.5556L25.8333 2.23667H26.5C27.2056 2.23667 27.7778 2.79944 27.7778 3.49389V19.8544Z" fill="white"/>
</svg>
