<svg xmlns="http://www.w3.org/2000/svg" width="30" height="30" fill="none"><path d="M15 0A15 15 0 0 0 0 15c0 6.637 4.294 12.244 10.256 14.231.75.131 1.031-.319 1.031-.713l-.019-2.794c-3.769.694-4.744-.919-5.044-1.763-.169-.431-.9-1.762-1.537-2.119-.525-.281-1.275-.975-.019-.994 1.181-.019 2.025 1.087 2.306 1.537 1.35 2.269 3.506 1.631 4.369 1.238.131-.975.525-1.631.956-2.006-3.338-.375-6.825-1.669-6.825-7.406 0-1.631.581-2.981 1.538-4.031-.15-.375-.675-1.912.15-3.975 0 0 1.256-.394 4.125 1.538a13.92 13.92 0 0 1 3.75-.506 13.92 13.92 0 0 1 3.75.506c2.869-1.95 4.125-1.538 4.125-1.538.825 2.063.3 3.6.15 3.975.956 1.05 1.538 2.381 1.538 4.031 0 5.756-3.506 7.031-6.844 7.406.544.469 1.012 1.369 1.012 2.775l-.019 4.125c0 .394.281.863 1.031.713 2.978-1.005 5.566-2.919 7.399-5.472A15.02 15.02 0 0 0 30 15 15 15 0 0 0 15 0z" fill="#fff"/></svg>