<svg width="153" height="37" viewBox="0 0 153 37" fill="none" xmlns="http://www.w3.org/2000/svg">
<path d="M152.215 17.3557V23.6704H149.689V19.8816H142.112V33.774H149.689V29.9346H152.215V36.2999H139.586V17.3557H152.215Z" fill="white"/>
<path d="M124.432 17.3557V36.2999H137.061V33.774H126.958V27.5603H137.061V17.3557H124.432ZM134.535 25.0344H126.958V19.8816H134.535V25.0344Z" fill="white"/>
<path d="M121.905 0.9375H119.379V36.3H121.905V0.9375Z" fill="white"/>
<path d="M96.6451 18.6187V36.2999H94.1192V21.1445H86.5415V36.2999H84.0156V17.3557H86.5415V19.7548L86.5496 19.7624L87.8085 18.6348L87.8267 18.6187H96.6451Z" fill="white"/>
<path d="M81.4907 17.3557H78.9648V36.2999H81.4907V17.3557Z" fill="white"/>
<path d="M81.4907 12.304H78.9648V14.8298H81.4907V12.304Z" fill="white"/>
<path d="M48.6543 0.9375V18.4919L48.6463 18.4995L47.3874 17.372L47.3692 17.3558H38.5508V36.3H51.1802V0.9375H48.6543ZM48.6543 33.7741H41.0767V19.8817H48.6543V33.7741Z" fill="white"/>
<path d="M36.0239 0.9375H33.498V36.3H36.0239V0.9375Z" fill="white"/>
<path d="M18.3438 17.3557V36.2999H30.9732V17.3557H18.3438ZM28.4473 33.774H20.8696V19.8816H28.4473V33.774Z" fill="white"/>
<path d="M3.188 3.46339V33.7741H13.2916V19.8817H9.50273V17.3558H15.8175V36.3H0.662109V0.9375H15.8175V3.46339H3.188Z" fill="white"/>
<path d="M71.4392 33.774H68.8143L67.5604 23.5901H67.5599L67.4472 22.4656H62.6986L62.5703 23.7482L61.3356 33.774H58.7208L56.6854 17.3557H54.1777L56.4854 36.2691L56.4869 36.2822L56.4884 36.2999H63.5574V36.2984L63.57 36.2999L64.9623 24.9915H65.1876L66.5809 36.3054L66.639 36.2984V36.2999H73.7115L73.8928 34.4868L75.9817 17.3557H73.4745L71.4392 33.774Z" fill="white"/>
<path d="M114.074 0.9375H101.95L99.1816 36.3H101.747L103.012 19.8817H113.011L114.276 36.3H116.842L114.074 0.9375ZM103.206 17.3558L104.271 3.46339H111.752L112.817 17.3558H103.206Z" fill="white"/>
</svg>