<svg xmlns="http://www.w3.org/2000/svg" width="147" height="30" fill="none"><path d="M9.84 24.288c-1.328 0-2.56-.216-3.696-.648-1.12-.448-2.104-1.072-2.952-1.872-.832-.8-1.48-1.736-1.944-2.808s-.696-2.24-.696-3.504c0-1.28.24-2.456.72-3.528a8.59 8.59 0 0 1 2.04-2.784c.88-.8 1.896-1.416 3.048-1.848 1.152-.448 2.384-.672 3.696-.672 1.584 0 3 .272 4.248.816 1.264.544 2.288 1.28 3.072 2.208l-3.24 3.24c-.592-.688-1.208-1.2-1.848-1.536s-1.408-.504-2.304-.504c-.848 0-1.616.192-2.304.576-.688.368-1.24.896-1.656 1.584-.4.688-.6 1.496-.6 2.424s.184 1.744.552 2.448c.384.688.912 1.224 1.584 1.608s1.456.576 2.352.576c.864 0 1.592-.168 2.184-.504s1.04-.816 1.344-1.44c.32-.624.48-1.36.48-2.208L17.208 18l-7.944-.24v-3.84h9.48v.72c0 2.048-.376 3.792-1.128 5.232-.736 1.44-1.776 2.536-3.12 3.288-1.328.752-2.88 1.128-4.656 1.128zm16.365 0c-1.296 0-2.456-.264-3.48-.792a6.32 6.32 0 0 1-2.4-2.232c-.576-.944-.864-2.008-.864-3.192s.288-2.24.864-3.168 1.368-1.656 2.376-2.184c1.024-.544 2.184-.816 3.48-.816s2.448.272 3.456.816c1.008.528 1.8 1.256 2.376 2.184.592.928.888 1.984.888 3.168s-.288 2.248-.864 3.192a6.14 6.14 0 0 1-2.376 2.232c-1.008.528-2.16.792-3.456.792zm-.024-4.128c.4 0 .744-.08 1.032-.24.304-.176.536-.416.696-.72.16-.32.24-.688.24-1.104s-.088-.776-.264-1.08c-.16-.32-.384-.56-.672-.72-.288-.176-.632-.264-1.032-.264-.384 0-.728.088-1.032.264-.288.176-.52.424-.696.744-.16.304-.24.664-.24 1.08 0 .4.08.76.24 1.08.176.304.408.544.696.72.304.16.648.24 1.032.24zM34.362 24V6.432h4.704V24h-4.704zm12.073.24c-1.168 0-2.192-.264-3.072-.792-.864-.528-1.544-1.248-2.04-2.16-.48-.928-.72-1.992-.72-3.192s.24-2.264.72-3.192c.496-.928 1.176-1.648 2.04-2.16.88-.528 1.904-.792 3.072-.792a5.5 5.5 0 0 1 1.992.36c.624.224 1.152.544 1.584.96.448.416.728.896.84 1.44v6.528c-.112.544-.392 1.048-.84 1.512-.432.448-.96.808-1.584 1.08a4.93 4.93 0 0 1-1.992.408zm.864-4.128c.4 0 .744-.08 1.032-.24a1.82 1.82 0 0 0 .672-.72c.176-.304.264-.656.264-1.056s-.08-.744-.24-1.032c-.16-.304-.392-.544-.696-.72-.288-.176-.624-.264-1.008-.264s-.728.088-1.032.264c-.288.176-.52.416-.696.72s-.264.648-.264 1.032.08.728.24 1.032c.176.304.416.544.72.72s.64.264 1.008.264zM53.707 24h-4.584v-3.168l.648-2.88-.768-2.856V6.432h4.704V24zm4.593 0l-3.432-11.808h4.464l1.896 8.592-1.32.024 2.472-8.616h4.44l2.496 8.616-1.344-.024 1.944-8.592h4.464L70.948 24H66.46l-2.304-8.16h.96L62.74 24H58.3zm17.031 0V12.192h4.704V24h-4.704zm2.352-12.912c-.688 0-1.264-.232-1.728-.696-.448-.48-.672-1.064-.672-1.752s.224-1.264.672-1.728c.464-.48 1.04-.72 1.728-.72.704 0 1.28.24 1.728.72.448.464.672 1.04.672 1.728s-.224 1.272-.672 1.752c-.448.464-1.024.696-1.728.696zM89.781 24v-6.624c0-.464-.136-.816-.408-1.056-.256-.256-.584-.384-.984-.384a1.64 1.64 0 0 0-.744.168c-.208.112-.376.28-.504.504-.112.208-.168.464-.168.768l-1.824-.816c0-.96.208-1.784.624-2.472.432-.688 1.016-1.216 1.752-1.584.752-.368 1.6-.552 2.544-.552.848 0 1.6.192 2.256.576a4.06 4.06 0 0 1 1.584 1.536c.384.64.576 1.384.576 2.232V24h-4.704zm-7.512 0V12.192h4.704V24h-4.704zm13.243 0l6.504-17.088h4.896L113.343 24h-4.992l-4.776-14.52h1.728L100.407 24h-4.896zm4.224-2.88v-3.744h9.552v3.744h-9.552zM114.612 24V6.432h4.704V24h-4.704zm13.105.288c-1.376 0-2.584-.256-3.624-.768-1.04-.528-1.856-1.256-2.448-2.184-.576-.944-.864-2.024-.864-3.24 0-1.2.28-2.264.84-3.192.576-.928 1.36-1.656 2.352-2.184.992-.544 2.112-.816 3.36-.816 1.232 0 2.32.256 3.264.768.944.496 1.68 1.192 2.208 2.088.544.896.816 1.92.816 3.072a6.59 6.59 0 0 1-.048.768c-.016.256-.064.56-.144.912l-10.656.072v-2.88l8.904-.072-2.184 1.272c0-.64-.08-1.16-.24-1.56-.144-.416-.368-.728-.672-.936s-.688-.312-1.152-.312c-.48 0-.896.12-1.248.36s-.624.584-.816 1.032c-.176.448-.264.992-.264 1.632 0 .656.096 1.208.288 1.656.208.432.504.76.888.984s.864.336 1.44.336c.56 0 1.048-.088 1.464-.264.432-.192.824-.488 1.176-.888l2.352 2.328c-.592.672-1.304 1.176-2.136 1.512s-1.784.504-2.856.504zm13.285 0c-1.28 0-2.432-.264-3.456-.792a6.16 6.16 0 0 1-2.424-2.184c-.592-.944-.888-2.008-.888-3.192 0-1.2.296-2.264.888-3.192.608-.944 1.424-1.68 2.448-2.208 1.04-.544 2.208-.816 3.504-.816.928 0 1.76.144 2.496.432.752.288 1.448.728 2.088 1.32l-2.952 2.952c-.208-.192-.44-.336-.696-.432s-.568-.144-.936-.144c-.384 0-.736.088-1.056.264-.304.16-.552.392-.744.696s-.288.664-.288 1.08.096.784.288 1.104c.192.304.448.544.768.72a2.11 2.11 0 0 0 1.032.264c.416 0 .76-.064 1.032-.192s.512-.304.72-.528l2.952 2.952c-.688.64-1.408 1.12-2.16 1.44-.752.304-1.624.456-2.616.456z" fill="#fff"/></svg>